<svg width="196" height="196" viewBox="0 0 196 196" fill="none" xmlns="http://www.w3.org/2000/svg">
<path d="M95.9359 19.9472C96.6155 17.9892 99.3845 17.9892 100.064 19.9472V19.9472C100.707 21.7986 103.273 21.9331 104.106 20.159V20.159C104.986 18.2828 107.74 18.5722 108.211 20.5905V20.5905C108.657 22.4989 111.196 22.901 112.209 21.2237V21.2237C113.281 19.4498 115.989 20.0255 116.247 22.082V22.082C116.491 24.0265 118.973 24.6918 120.157 23.1295V23.1295C121.408 21.4774 124.041 22.3331 124.083 24.4052V24.4052C124.122 26.3645 126.521 27.2857 127.861 25.8557V25.8557C129.279 24.3434 131.808 25.4696 131.633 27.5347V27.5347C131.467 29.4874 133.757 30.6543 135.239 29.3722V29.3722C136.806 28.0164 139.204 29.4009 138.814 31.4363V31.4363C138.445 33.361 140.6 34.7608 142.208 33.6407V33.6407C143.909 32.4561 146.149 34.0837 145.548 36.0672V36.0672C144.98 37.9427 146.977 39.5602 148.694 38.6143V38.6143C150.509 37.614 152.567 39.4668 151.761 41.3766V41.3766C151 43.1824 152.818 44.9999 154.623 44.2386V44.2386C156.533 43.4334 158.386 45.4912 157.386 47.3064V47.3064C156.44 49.0227 158.057 51.0202 159.933 50.4518V50.4518C161.916 49.8507 163.544 52.0909 162.359 53.7916V53.7916C161.239 55.3996 162.639 57.5553 164.564 57.1861V57.1861C166.599 56.7956 167.984 59.1936 166.628 60.7611V60.7611C165.346 62.2433 166.513 64.5335 168.465 64.3674V64.3674C170.53 64.1919 171.657 66.7215 170.144 68.1387V68.1387C168.714 69.4787 169.635 71.8783 171.595 71.9173V71.9173C173.667 71.9586 174.523 74.5921 172.87 75.8434V75.8434C171.308 77.0266 171.973 79.5094 173.918 79.753V79.753C175.975 80.0106 176.55 82.7191 174.776 83.7909V83.7909C173.099 84.8043 173.501 87.343 175.409 87.7885V87.7885C177.428 88.2597 177.717 91.0135 175.841 91.894V91.894C174.067 92.7266 174.201 95.2934 176.053 95.9359V95.9359C178.011 96.6155 178.011 99.3845 176.053 100.064V100.064C174.201 100.707 174.067 103.273 175.841 104.106V104.106C177.717 104.986 177.428 107.74 175.409 108.211V108.211C173.501 108.657 173.099 111.196 174.776 112.209V112.209C176.55 113.281 175.975 115.989 173.918 116.247V116.247C171.973 116.491 171.308 118.973 172.87 120.157V120.157C174.523 121.408 173.667 124.041 171.595 124.083V124.083C169.635 124.122 168.714 126.521 170.144 127.861V127.861C171.657 129.278 170.53 131.808 168.465 131.633V131.633C166.513 131.467 165.346 133.757 166.628 135.239V135.239C167.984 136.806 166.599 139.204 164.564 138.814V138.814C162.639 138.445 161.239 140.6 162.359 142.208V142.208C163.544 143.909 161.916 146.149 159.933 145.548V145.548C158.057 144.98 156.44 146.977 157.386 148.694V148.694C158.386 150.509 156.533 152.567 154.623 151.761V151.761C152.818 151 151 152.818 151.761 154.623V154.623C152.567 156.533 150.509 158.386 148.694 157.386V157.386C146.977 156.44 144.98 158.057 145.548 159.933V159.933C146.149 161.916 143.909 163.544 142.208 162.359V162.359C140.6 161.239 138.445 162.639 138.814 164.564V164.564C139.204 166.599 136.806 167.984 135.239 166.628V166.628C133.757 165.346 131.467 166.513 131.633 168.465V168.465C131.808 170.53 129.278 171.657 127.861 170.144V170.144C126.521 168.714 124.122 169.635 124.083 171.595V171.595C124.041 173.667 121.408 174.523 120.157 172.87V172.87C118.973 171.308 116.491 171.973 116.247 173.918V173.918C115.989 175.975 113.281 176.55 112.209 174.776V174.776C111.196 173.099 108.657 173.501 108.211 175.409V175.409C107.74 177.428 104.986 177.717 104.106 175.841V175.841C103.273 174.067 100.707 174.201 100.064 176.053V176.053C99.3845 178.011 96.6155 178.011 95.9359 176.053V176.053C95.2934 174.201 92.7266 174.067 91.894 175.841V175.841C91.0135 177.717 88.2597 177.428 87.7885 175.409V175.409C87.343 173.501 84.8043 173.099 83.7909 174.776V174.776C82.7191 176.55 80.0106 175.975 79.753 173.918V173.918C79.5094 171.973 77.0266 171.308 75.8434 172.87V172.87C74.5921 174.523 71.9586 173.667 71.9173 171.595V171.595C71.8783 169.635 69.4787 168.714 68.1387 170.144V170.144C66.7215 171.657 64.1919 170.53 64.3674 168.465V168.465C64.5335 166.513 62.2433 165.346 60.7611 166.628V166.628C59.1936 167.984 56.7956 166.599 57.1861 164.564V164.564C57.5553 162.639 55.3996 161.239 53.7916 162.359V162.359C52.0909 163.544 49.8507 161.916 50.4518 159.933V159.933C51.0202 158.057 49.0227 156.44 47.3064 157.386V157.386C45.4912 158.386 43.4334 156.533 44.2386 154.623V154.623C44.9999 152.818 43.1824 151 41.3766 151.761V151.761C39.4668 152.567 37.614 150.509 38.6143 148.694V148.694C39.5602 146.977 37.9427 144.98 36.0672 145.548V145.548C34.0837 146.149 32.4561 143.909 33.6407 142.208V142.208C34.7608 140.6 33.361 138.445 31.4363 138.814V138.814C29.4009 139.204 28.0164 136.806 29.3722 135.239V135.239C30.6543 133.757 29.4874 131.467 27.5347 131.633V131.633C25.4696 131.808 24.3434 129.279 25.8557 127.861V127.861C27.2857 126.521 26.3645 124.122 24.4052 124.083V124.083C22.3331 124.041 21.4774 121.408 23.1295 120.157V120.157C24.6918 118.973 24.0265 116.491 22.082 116.247V116.247C20.0255 115.989 19.4498 113.281 21.2237 112.209V112.209C22.901 111.196 22.4989 108.657 20.5905 108.211V108.211C18.5722 107.74 18.2828 104.986 20.159 104.106V104.106C21.9331 103.273 21.7986 100.707 19.9472 100.064V100.064C17.9892 99.3845 17.9892 96.6155 19.9472 95.9359V95.9359C21.7986 95.2934 21.9331 92.7266 20.159 91.894V91.894C18.2828 91.0135 18.5722 88.2597 20.5905 87.7885V87.7885C22.4989 87.343 22.901 84.8043 21.2237 83.7909V83.7909C19.4498 82.7191 20.0255 80.0106 22.082 79.753V79.753C24.0265 79.5094 24.6918 77.0266 23.1295 75.8434V75.8434C21.4774 74.5921 22.3331 71.9586 24.4052 71.9173V71.9173C26.3645 71.8783 27.2857 69.4787 25.8557 68.1387V68.1387C24.3434 66.7215 25.4696 64.1919 27.5347 64.3674V64.3674C29.4874 64.5335 30.6543 62.2433 29.3722 60.7611V60.7611C28.0164 59.1936 29.4009 56.7956 31.4363 57.1861V57.1861C33.361 57.5553 34.7609 55.3996 33.6407 53.7916V53.7916C32.4561 52.0909 34.0837 49.8507 36.0672 50.4518V50.4518C37.9427 51.0202 39.5602 49.0227 38.6143 47.3064V47.3064C37.614 45.4912 39.4668 43.4334 41.3766 44.2386V44.2386C43.1824 44.9999 44.9999 43.1824 44.2386 41.3766V41.3766C43.4334 39.4668 45.4912 37.614 47.3064 38.6143V38.6143C49.0227 39.5602 51.0202 37.9427 50.4518 36.0672V36.0672C49.8507 34.0837 52.0909 32.4561 53.7916 33.6407V33.6407C55.3996 34.7609 57.5553 33.361 57.1861 31.4363V31.4363C56.7956 29.4009 59.1936 28.0164 60.7611 29.3722V29.3722C62.2433 30.6543 64.5335 29.4874 64.3674 27.5347V27.5347C64.1919 25.4696 66.7215 24.3434 68.1387 25.8557V25.8557C69.4787 27.2857 71.8783 26.3645 71.9173 24.4052V24.4052C71.9586 22.3331 74.5921 21.4774 75.8434 23.1295V23.1295C77.0266 24.6918 79.5094 24.0265 79.753 22.082V22.082C80.0106 20.0255 82.7191 19.4498 83.7909 21.2237V21.2237C84.8043 22.901 87.343 22.4989 87.7885 20.5905V20.5905C88.2597 18.5722 91.0135 18.2828 91.894 20.159V20.159C92.7266 21.9331 95.2934 21.7986 95.9359 19.9472V19.9472Z" fill="#ED6502"/>
<g style="mix-blend-mode:darken">
<circle cx="98" cy="98" r="64" fill="#CD4502"/>
</g>
<path d="M98 48L111.505 84.4955L148 98L111.505 111.505L98 148L84.4955 111.505L48 98L84.4955 84.4955L98 48Z" fill="#8D2502"/>
</svg>
